# xmcd
#
# Track frame offsets:
#	150
#	13038
#	29331
#	43391
#	58152
#	70448
#	87597
#	101235
#	121439
#	139068
#	153196
#	167154
#	183308
#	196658
#	214262
#
# Disc length: 3049 seconds
#
# Revision: 0
# Processed by: cddbd v1.5.2PL0 Copyright (c) Steve Scherf et al.
# Submitted via: audiograbber 1.83.01
#
DISCID=de0be70f
DTITLE=Florida Georgia Line - Dig Your Roots
DYEAR=2016
DGENRE=Country
TTITLE0=Smooth
TTITLE1=Dig Your Roots
TTITLE2=Life Is a Honeymoon (feat. Ziggy Marley)
TTITLE3=H.O.L.Y.
TTITLE4=Island
TTITLE5=May We All (feat. Tim McGraw)
TTITLE6=Summerland
TTITLE7=Lifer
TTITLE8=Good Girl, Bad Boy
TTITLE9=Wish You Were on It
TTITLE10=God, Your Mama, And Me (feat. Backstreet Boys)
TTITLE11=Music Is Healing
TTITLE12=While He's Still Around
TTITLE13=Grow Old
TTITLE14=Heatwave
EXTD=
EXTT0=
EXTT1=
EXTT2=
EXTT3=
EXTT4=
EXTT5=
EXTT6=
EXTT7=
EXTT8=
EXTT9=
EXTT10=
EXTT11=
EXTT12=
EXTT13=
EXTT14=
PLAYORDER=
